# xmcd CD database file
#
# Track frame offsets:
#	150
#	22299
#	36373
#	60894
#	86128
#	115976
#	141896
#	170124
#	191843
#	207257
#
# Disc length: 2967 seconds
#
# Revision: 0
# Processed by: cddbd v1.5.2PL0 Copyright (c) Steve Scherf et al.
# Submitted via: CDex 1.70beta2
#
DISCID=960b950a
DTITLE=Jass - Jass
DYEAR=2012
DGENRE=Jazz
TTITLE0=Recurring Dreams
TTITLE1=Saj S
TTITLE2=Jazz Envy
TTITLE3=Water
TTITLE4=Limp Mint
TTITLE5=Driving Licence
TTITLE6=No D
TTITLE7=Miss Univers 2031
TTITLE8=It Began To Get Dark
TTITLE9=Tric￩phale
EXTD=YEAR: 2012
EXTT0=
EXTT1=
EXTT2=
EXTT3=
EXTT4=
EXTT5=
EXTT6=
EXTT7=
EXTT8=
EXTT9=
PLAYORDER=
